<svg width="76" height="76" viewBox="0 0 76 76" fill="none" xmlns="http://www.w3.org/2000/svg">
<g filter="url(#filter0_d_1_266)">
<path d="M64.0428 46.7872L42.8958 58.9958L29.4065 66.7844L29.1883 66.9103L21.7495 71.205C16.6237 74.1648 10.2151 70.4654 10.2151 64.5452V15.7103C10.2151 9.79 16.623 6.09134 21.7495 9.05041L29.9941 13.8103L31.0623 14.4267L42.8958 21.259L47.372 23.843L47.8316 24.109L64.0421 33.4675C69.1686 36.4273 69.1686 43.8274 64.0428 46.7872Z" fill="#681D29"/>
<path d="M33.4386 49.1116C32.4703 49.3107 30.8799 49.4324 28.6703 48.7442C27.9814 46.5346 28.1031 44.9435 28.303 43.9759C29.2023 39.6186 33.9382 36.9642 40.2237 37.1915C40.4503 43.4763 37.7959 48.2129 33.4386 49.1116Z" fill="#F7DAAB"/>
<path d="M37.7497 53.63C37.1171 53.5927 36.122 53.4091 34.925 52.647C34.9842 51.2297 35.4022 50.3078 35.7329 49.7674C37.2233 47.3347 40.682 46.5254 44.4609 47.669C43.24 51.4232 40.5983 53.7982 37.7497 53.63Z" fill="#2F050F"/>
<path d="M50.2347 50.7477C49.683 50.6738 48.8083 50.438 47.7232 49.6393C47.688 48.2924 47.9956 47.4403 48.2496 46.9455C49.3952 44.7183 52.3487 44.1575 55.6976 45.4769C54.8658 48.9785 52.7174 51.0805 50.2347 50.7477Z" fill="#D86B79"/>
<path d="M62.8311 47.4086C62.183 47.84 61.0465 48.4001 59.1697 48.562C57.8897 47.1792 57.426 45.9998 57.2367 45.2454C56.3852 41.8472 58.9706 38.5328 63.7072 36.827C66.0646 41.2751 65.7473 45.4671 62.8311 47.4086Z" fill="#2F050F"/>
<path d="M50.937 42.4538C50.3712 42.5805 49.4381 42.6684 48.1285 42.2856C47.6901 40.9943 47.7365 40.0584 47.8393 39.487C48.3009 36.9178 51.0439 35.3105 54.7412 35.3809C54.9713 39.0718 53.4837 41.8817 50.937 42.4538Z" fill="#D86B79"/>
<path d="M46.8111 35.9755C46.3635 36.3471 45.5705 36.8516 44.2292 37.1071C43.2539 36.1521 42.8725 35.2929 42.7057 34.7356C41.9555 32.2262 43.6761 29.5366 47.0074 27.9118C48.8814 31.1087 48.8251 34.3014 46.8111 35.9755Z" fill="#D86B79"/>
<path d="M39.0606 32.5865C38.6884 33.0094 38.0002 33.6125 36.7279 34.0713C35.5956 33.3317 35.0657 32.5858 34.8004 32.089C33.6083 29.8512 34.8117 27.0406 37.7912 24.9696C40.2133 27.6718 40.7362 30.6837 39.0606 32.5865Z" fill="#D86B79"/>
<path d="M28.5269 31.7681C27.9879 31.9046 27.1026 32.0144 25.8697 31.6885C25.4813 30.4747 25.546 29.5845 25.6544 29.0391C26.1456 26.5853 28.7781 24.9808 32.2805 24.9421C32.4205 28.441 30.9519 31.1523 28.5269 31.7681Z" fill="#D86B79"/>
<path d="M26.116 22.2554C25.5749 21.9915 24.7684 21.4666 23.9937 20.3561C24.5559 19.1246 25.2547 18.4624 25.7395 18.1057C27.9224 16.4984 31.2474 17.0452 34.1481 19.4343C31.7245 22.3068 28.5529 23.4433 26.116 22.2554Z" fill="#D86B79"/>
<path d="M44.5494 56.2183C44.1715 55.758 43.6599 54.9438 43.4087 53.5765C44.3967 52.5984 45.2812 52.2226 45.8548 52.0615C48.4367 51.3346 51.1839 53.1234 52.825 56.5342C49.5288 58.3941 46.2517 58.2907 44.5494 56.2183Z" fill="#D86B79"/>
<path d="M36.9874 57.5476C37.0149 56.9459 37.1739 56.0015 37.872 54.8714C39.1978 54.9446 40.064 55.3541 40.5728 55.6757C42.8648 57.1239 43.6635 60.425 42.6403 64.0069C39.1168 62.7986 36.865 60.2561 36.9874 57.5476Z" fill="#D86B79"/>
<path d="M30.8026 54.9825C30.9976 54.4843 31.4071 53.7314 32.3459 52.9552C33.5006 53.3429 34.153 53.8996 34.5133 54.295C36.1353 56.0747 35.9066 59.0415 33.9834 61.7944C31.2016 59.9127 29.9258 57.2245 30.8026 54.9825Z" fill="#D86B79"/>
<path d="M22.52 45.5888C22.1921 46.1046 21.5594 46.8653 20.2871 47.562C18.9761 46.9406 18.3006 46.2186 17.9431 45.7225C16.3359 43.4911 17.1704 40.2625 19.9958 37.5539C22.9732 40.0929 23.9943 43.2673 22.52 45.5888Z" fill="#D86B79"/>
<path d="M16.0348 48.1545C15.9919 48.6957 15.8145 49.5521 15.1193 50.6027C13.8597 50.6062 13.0469 50.2846 12.5712 50.0228C10.4298 48.8434 9.76058 45.9224 10.833 42.6544C14.1531 43.5537 16.2262 45.7176 16.0348 48.1545Z" fill="#2F050F"/>
<path d="M15.5723 55.0086C15.8524 54.7799 16.352 54.4703 17.212 54.3105C17.8643 54.8925 18.131 55.4167 18.252 55.7573C18.796 57.2907 17.7496 58.9402 15.6378 59.9416C14.3521 57.9909 14.312 56.0374 15.5723 55.0086Z" fill="#2F050F"/>
<path d="M19.0762 58.4589C19.3908 58.202 19.9516 57.8544 20.9171 57.6749C21.6497 58.3287 21.9488 58.917 22.0853 59.2998C22.6961 61.021 21.5209 62.8732 19.1501 63.997C17.7054 61.8064 17.6611 59.6136 19.0762 58.4589Z" fill="#2F050F"/>
<path d="M22.4321 63.4277C22.6636 63.2391 23.0767 62.9823 23.7874 62.8507C24.3265 63.332 24.5467 63.7648 24.6474 64.0463C25.097 65.3136 24.2322 66.676 22.487 67.5043C21.4237 65.8921 21.3906 64.2778 22.4321 63.4277Z" fill="#2F050F"/>
<path d="M26.1062 62.7817C25.8388 62.61 25.444 62.2764 25.0767 61.6009C25.3856 60.8972 25.7515 60.5313 26.0034 60.3377C27.1371 59.4658 28.8007 59.8923 30.2123 61.3856C28.9308 62.9914 27.3088 63.5558 26.1062 62.7817Z" fill="#F7DAAB"/>
<path d="M23.9437 58.1337C23.6397 57.9381 23.19 57.5588 22.7727 56.7904C23.1246 55.9895 23.5404 55.5744 23.8269 55.3534C25.1167 54.3619 27.009 54.8467 28.6142 56.5448C27.1568 58.3716 25.3124 59.0134 23.9437 58.1337Z" fill="#F7DAAB"/>
<path d="M27.7957 13.407C27.7161 13.7279 27.5156 14.2374 26.9484 14.8693C26.099 14.8904 25.5818 14.7124 25.2863 14.5646C23.9541 13.8989 23.7782 12.1805 24.8084 10.2298C26.9604 10.7125 28.1539 11.9623 27.7957 13.407Z" fill="#2F050F"/>
<path d="M32.9343 12.0707C32.664 12.3114 32.1644 12.6513 31.2355 12.8877C30.4023 12.4148 30.009 11.956 29.8119 11.652C28.9253 10.2854 29.7894 8.64718 31.9582 7.50014C33.7484 9.17777 34.1496 10.9863 32.9343 12.0707Z" fill="#D86B79"/>
<path d="M38.9086 11.9827C38.5779 12.1741 37.9959 12.4148 37.0283 12.4458C36.357 11.7484 36.1079 11.17 36.0037 10.8019C35.5372 9.1461 36.8446 7.61696 39.2752 6.91536C40.5285 9.11373 40.3983 11.1221 38.9086 11.9827Z" fill="#F7DAAB"/>
<path d="M44.1286 14.8813C43.7028 14.9158 43.0153 14.8855 42.1146 14.4774C41.9584 13.5006 42.1097 12.83 42.256 12.4282C42.9126 10.6197 45.1018 9.7351 47.7731 10.158C47.4768 12.8455 46.0462 14.7244 44.1286 14.8813Z" fill="#F7DAAB"/>
<path d="M48.139 18.9431C47.7287 18.903 47.0736 18.751 46.2432 18.1859C46.17 17.1838 46.3678 16.5413 46.5388 16.1656C47.3086 14.4767 49.4732 13.9784 51.9967 14.87C51.502 17.5012 49.9862 19.1239 48.139 18.9431Z" fill="#F7DAAB"/>
<path d="M48.7112 23.7853C48.4389 23.539 48.0497 23.0823 47.7493 22.2273C48.2144 21.4497 48.6873 21.0795 49.0033 20.893C50.4247 20.0528 52.2262 20.8269 53.5668 22.8148C51.8561 24.4939 49.9364 24.8922 48.7112 23.7853Z" fill="#F7DAAB"/>
<path d="M60.8782 36.2204C60.7156 36.6546 60.3483 37.3414 59.425 38.1851C58.1745 38.1901 57.4392 37.9332 57.0254 37.7242C55.1627 36.782 55.1493 34.44 56.9409 31.818C60.0351 32.5337 61.6107 34.2655 60.8782 36.2204Z" fill="#D86B79"/>
<path d="M20.2197 54.0368C19.8798 53.8179 19.3767 53.3936 18.9094 52.5337C19.3028 51.6378 19.7686 51.1727 20.0895 50.9257C21.5328 49.816 23.6503 50.3585 25.4468 52.2592C23.8156 54.3035 21.751 55.022 20.2197 54.0368Z" fill="#F7DAAB"/>
<path d="M27.8993 35.0952C28.4221 34.9791 29.2799 34.8995 30.4664 35.2507C30.8239 36.435 30.7479 37.2935 30.6346 37.8171C30.123 40.1731 27.5538 41.646 24.1689 41.5791C24.0852 38.1943 25.5454 35.618 27.8993 35.0952Z" fill="#2F050F"/>
<path d="M22.6665 31.6625C23.2112 31.8539 24.0388 32.267 24.9078 33.248C24.5264 34.502 23.9466 35.2225 23.5314 35.6237C21.6623 37.4294 18.4492 37.29 15.4106 35.3225C17.3522 32.267 20.2148 30.8012 22.6665 31.6625Z" fill="#2F050F"/>
<path d="M20.4863 26.2982C20.9718 26.7169 21.6565 27.4656 22.1329 28.7626C21.1787 29.7611 20.2526 30.1749 19.6397 30.3649C16.8826 31.2192 13.578 29.671 11.2656 26.5001C14.6511 24.5143 18.2991 24.4144 20.4863 26.2982Z" fill="#2F050F"/>
<path d="M22.131 19.2647C22.0986 20.0247 21.8875 21.2435 20.9375 22.8141C19.1128 23.0196 17.9179 22.7015 17.2142 22.413C14.0483 21.1133 12.9202 17.1578 14.2967 12.4423C19.155 13.1657 22.276 15.8447 22.131 19.2647Z" fill="#F7DAAB"/>
<path d="M49.0328 46.1841C48.6711 50.2121 44.888 54.0009 40.7734 54.9938C33.3824 56.7777 29.0694 48.5662 21.7776 49.671C18.7968 50.1228 14.5555 52.248 10.2151 60.6833C10.2151 59.7044 10.2151 58.7255 10.2151 57.7467C14.3437 50.5999 18.3239 48.519 21.411 48.1109C29.2285 47.0778 34.1248 56.4005 40.9578 54.2591C44.4517 53.1642 47.1025 49.488 47.3812 45.9998C47.726 41.6861 44.4207 37.9255 41.5081 36.0888C35.1522 32.0819 29.4902 36.497 25.0815 32.4183C21.4786 29.0841 22.354 23.4461 22.4201 23.0583C23.0971 19.081 26.0773 15.5195 29.9934 13.8103C31.8624 12.9925 33.9461 12.5978 36.0931 12.7807C41.9507 13.279 46.8907 17.9544 47.8309 24.1097L47.3713 23.8437C46.1828 18.1113 41.4701 13.9327 36.0931 13.6069C34.3437 13.5013 32.6323 13.8095 31.0616 14.4274C27.0385 16.0107 23.9408 19.6278 23.5214 23.5178C23.4679 24.0076 23.1112 27.8963 25.8155 30.7674C29.6662 34.8566 34.6737 31.5225 41.2322 35.0804C44.7233 36.9741 49.4747 41.2653 49.0328 46.1841Z" fill="#D86B79"/>
<path d="M29.4065 66.7844L29.1883 66.9103C27.0822 65.6437 25.7859 64.2721 24.9901 63.2532C22.969 60.6664 23.1661 59.0204 20.8607 56.5539C19.6947 55.3062 18.3309 53.8475 16.6392 53.9847C15.2114 54.1001 14.1995 55.2999 12.6013 57.1964C11.4684 58.5405 10.7028 59.791 10.2151 60.6832C10.2151 59.6741 10.2151 58.6643 10.2151 57.6552C10.3755 57.3456 10.6141 56.9262 10.9491 56.4624C11.3312 55.934 13.5675 52.8384 16.4548 52.7919C18.9734 52.7511 20.8002 55.0494 21.7776 56.2788C23.7431 58.7516 23.3406 60.2737 25.173 62.8858C26.5635 64.8682 28.2475 66.0842 29.4065 66.7844Z" fill="#F7DAAB"/>
<g style="mix-blend-mode:multiply">
<path d="M23.4447 70.2255L21.7495 71.2043C16.6237 74.1641 10.2151 70.4647 10.2151 64.5445V15.7103C10.2151 9.79 16.623 6.09134 21.7495 9.05041L23.4447 10.0293C19.7348 10.0996 16.3641 13.0876 16.3641 17.245V63.0097C16.3641 67.1665 19.7348 70.1544 23.4447 70.2255Z" fill="#B4B4B4"/>
</g>
</g>
<defs>
<filter id="filter0_d_1_266" x="0.215088" y="0.915363" width="77.6719" height="85.3314" filterUnits="userSpaceOnUse" color-interpolation-filters="sRGB">
<feFlood flood-opacity="0" result="BackgroundImageFix"/>
<feColorMatrix in="SourceAlpha" type="matrix" values="0 0 0 0 0 0 0 0 0 0 0 0 0 0 0 0 0 0 127 0" result="hardAlpha"/>
<feOffset dy="4"/>
<feGaussianBlur stdDeviation="5"/>
<feComposite in2="hardAlpha" operator="out"/>
<feColorMatrix type="matrix" values="0 0 0 0 0.968627 0 0 0 0 0.854902 0 0 0 0 0.670588 0 0 0 0.5 0"/>
<feBlend mode="normal" in2="BackgroundImageFix" result="effect1_dropShadow_1_266"/>
<feBlend mode="normal" in="SourceGraphic" in2="effect1_dropShadow_1_266" result="shape"/>
</filter>
</defs>
</svg>
