<svg width="14" height="12" viewBox="0 0 14 12" fill="none" xmlns="http://www.w3.org/2000/svg">
<path d="M1.92265 0.415857C1.88513 0.453378 1.87981 0.504338 1.89311 0.769778C1.93595 1.67586 1.93875 1.8153 1.90921 1.86892C1.87169 1.94396 1.79665 1.93864 1.64111 1.85548C1.57139 1.81796 1.49103 1.79108 1.46681 1.79654C1.35691 1.81796 1.35957 1.87158 1.50699 2.54442L1.65189 3.19864L1.66799 3.96262L1.68409 4.7266L1.78055 4.9947C1.92265 5.3888 1.97361 5.4987 2.13713 5.7507C2.31409 6.02146 2.58219 6.29488 2.82873 6.45574C2.98959 6.56032 3.00835 6.5844 3.00835 6.65944C3.00835 6.82562 3.00037 6.83108 2.72961 6.83108C2.26845 6.83374 1.91733 6.95176 1.64923 7.1983C1.57153 7.26802 1.23637 7.68886 0.904013 8.1286C0.142553 9.14192 0.139893 9.15004 0.139893 9.93824C0.139893 10.4396 0.172093 10.6245 0.303413 10.8845C0.448173 11.1714 0.796633 11.4689 1.09959 11.56L1.15853 11.5788V11.0668C1.15853 10.6378 1.16651 10.5387 1.20137 10.477C1.34613 10.2357 1.70005 10.2839 1.77509 10.5547C1.78853 10.6083 1.80197 10.8711 1.80197 11.139V11.6296H3.94397H6.08863L6.09675 11.064L6.10473 10.4982L6.20399 10.4071C6.32733 10.2972 6.47209 10.2838 6.58465 10.3722C6.72409 10.4821 6.73473 10.5384 6.73473 11.096V11.6108L6.87417 11.5947C7.06723 11.5706 7.36473 11.4231 7.54169 11.2596L7.69457 11.1201H8.90361H10.1127V10.6912C10.1127 10.2703 10.1153 10.2595 10.1797 10.1951C10.2655 10.1067 10.4048 10.1067 10.5068 10.1925L10.5818 10.2567L10.5898 10.6776L10.6006 11.0984L10.7078 11.0823C10.9893 11.0368 11.3109 10.7767 11.4477 10.4819C11.5066 10.3532 11.5201 10.2808 11.5282 10.0449L11.539 9.76072L11.3567 9.7393C10.775 9.6777 10.2039 9.39084 9.78309 8.9511C8.97613 8.10662 8.83949 6.83318 9.44793 5.83596C9.59787 5.58984 10.0187 5.15024 10.2144 5.03488L10.3297 4.96782L10.3217 4.51212C10.3137 4.06972 10.3109 4.05096 10.2359 3.89822C10.1313 3.6864 9.96243 3.52288 9.74263 3.4183L9.56301 3.33248L8.86063 3.3245L8.15825 3.31372L8.00271 3.11534C7.83919 2.90352 7.76149 2.86866 7.71319 2.9759C7.66489 3.0858 7.59797 3.06438 7.32987 2.84458C7.00815 2.5818 7.01081 2.5818 6.95985 2.62478C6.92499 2.65432 6.91967 2.73202 6.93843 3.20382C6.95985 3.83116 6.95985 3.8285 6.73193 3.72126C6.61391 3.66498 6.59515 3.66232 6.55763 3.69718C6.52277 3.7347 6.53355 3.80176 6.64079 4.29232C6.76147 4.84182 6.76147 4.8526 6.76147 5.35394V5.8606L6.85793 6.13402C6.96783 6.45308 7.05897 6.62192 7.23593 6.84172C7.34849 6.98116 7.58985 7.18752 7.73727 7.27334C7.77479 7.29476 7.78011 7.32164 7.76681 7.39934L7.74805 7.4958L7.46119 7.50658C7.19575 7.51456 7.15823 7.52268 6.98407 7.6085L6.79367 7.7023L6.60873 7.47984C6.23339 7.01868 5.93043 6.86062 5.41579 6.85782C5.15581 6.85782 5.14769 6.8525 5.11549 6.65678C5.09673 6.5522 5.09939 6.54688 5.22539 6.46918C5.40501 6.35662 5.69187 6.0804 5.84727 5.86872C6.01345 5.6408 6.15023 5.36738 6.28967 4.9814L6.39957 4.67312V3.54724C6.39957 2.43732 6.39957 2.41856 6.33797 2.24706C6.17179 1.7859 5.78847 1.44822 5.32997 1.36506C5.23883 1.34896 4.82065 1.33552 4.35151 1.33552L3.53111 1.33286L3.34351 1.08884C3.07807 0.743038 3.00303 0.708178 2.92533 0.887797C2.85827 1.03788 2.80731 1.01646 2.40523 0.681437C2.20419 0.509938 2.02191 0.370498 2.00315 0.370498C1.98159 0.370358 1.94673 0.389117 1.92265 0.415857Z" fill="#70232F"/>
<path d="M11.4851 5.0377C11.3538 5.07522 11.1983 5.24406 11.1634 5.39162C11.1447 5.46666 11.1312 5.75086 11.1312 6.11808V6.72386H10.4878C9.70224 6.72386 9.62188 6.74528 9.49322 6.99728C9.37786 7.2252 9.46102 7.53348 9.6755 7.66746C9.77476 7.7264 9.79884 7.72906 10.4529 7.73718L11.1286 7.74516L11.1365 8.40736C11.1445 9.05612 11.1445 9.07222 11.2116 9.19024C11.3698 9.46912 11.737 9.53072 11.981 9.31624C12.1419 9.17414 12.1499 9.1313 12.1499 8.39938V7.7425H12.7933C13.3161 7.7425 13.4582 7.73452 13.5385 7.70232C13.954 7.52536 13.9701 6.98384 13.5654 6.77482C13.4743 6.72918 13.4019 6.72386 12.8067 6.72386H12.15V6.06712C12.15 5.3352 12.142 5.29236 11.9812 5.15026C11.8364 5.0216 11.6702 4.98408 11.4851 5.0377Z" fill="#70232F"/>
</svg>
