<svg width="14" height="14" viewBox="0 0 14 14" fill="none" xmlns="http://www.w3.org/2000/svg">
<path d="M6.27051 1.5545C7.00287 1.5545 7.706 1.67538 8.35938 1.8963C8.23395 2.22504 8.16699 2.58068 8.16699 2.95099C8.16711 4.64741 9.60316 6.02228 11.375 6.02228C11.6948 6.02228 12.0034 5.97678 12.2949 5.89337C12.4541 6.42226 12.542 6.98045 12.542 7.55841C12.542 10.8745 9.73372 13.5623 6.27051 13.5623C2.80744 13.5621 0 10.8744 0 7.55841C4.66884e-05 4.24247 2.80747 1.55467 6.27051 1.5545ZM4.36621 10.5721H5.06445V8.23224H8.72949V5.22345H4.36621V10.5721Z" fill="#70232F"/>
<path fill-rule="evenodd" clip-rule="evenodd" d="M11.375 5.4641C12.8247 5.4641 14 4.33885 14 2.9508C14 1.56274 12.8247 0.4375 11.375 0.4375C9.92525 0.4375 8.75 1.56274 8.75 2.9508C8.75 4.33885 9.92525 5.4641 11.375 5.4641ZM10.2083 2.39229L9.625 2.9508L11.0833 4.34707L13.125 2.39229L12.5417 1.83378L11.0833 3.23005L10.2083 2.39229Z" fill="#70232F"/>
</svg>
