<svg width="76" height="76" viewBox="0 0 76 76" fill="none" xmlns="http://www.w3.org/2000/svg">
<path d="M63.0428 44.7872L41.8958 56.9958L28.4065 64.7844L28.1883 64.9103L20.7495 69.205C15.6237 72.1648 9.21509 68.4654 9.21509 62.5452V13.7103C9.21509 7.79 15.623 4.09133 20.7495 7.05041L28.9941 11.8103L30.0623 12.4267L41.8958 19.259L46.372 21.843L46.8316 22.109L63.0421 31.4675C68.1686 34.4273 68.1686 41.8274 63.0428 44.7872Z" fill="white"/>
<path d="M32.4386 47.1115C31.4703 47.3107 29.8799 47.4324 27.6703 46.7442C26.9814 44.5346 27.1031 42.9435 27.303 41.9759C28.2023 37.6186 32.9382 34.9642 39.2237 35.1915C39.4503 41.4763 36.7959 46.2129 32.4386 47.1115Z" fill="#F7DAAB"/>
<path d="M36.7497 51.63C36.1171 51.5927 35.122 51.4091 33.925 50.647C33.9842 49.2297 34.4022 48.3078 34.7329 47.7674C36.2233 45.3347 39.682 44.5254 43.4609 45.669C42.24 49.4232 39.5983 51.7982 36.7497 51.63Z" fill="#2F050F"/>
<path d="M49.2347 48.7477C48.683 48.6738 47.8083 48.438 46.7232 47.6393C46.688 46.2924 46.9956 45.4403 47.2496 44.9455C48.3952 42.7183 51.3487 42.1575 54.6976 43.4769C53.8658 46.9785 51.7174 49.0805 49.2347 48.7477Z" fill="#D86B79"/>
<path d="M61.8311 45.4086C61.183 45.84 60.0465 46.4001 58.1697 46.562C56.8897 45.1792 56.426 43.9998 56.2367 43.2454C55.3852 39.8472 57.9706 36.5328 62.7072 34.827C65.0646 39.2751 64.7473 43.4671 61.8311 45.4086Z" fill="#2F050F"/>
<path d="M49.937 40.4538C49.3712 40.5805 48.4381 40.6684 47.1285 40.2856C46.6901 38.9943 46.7365 38.0584 46.8393 37.487C47.3009 34.9178 50.0439 33.3105 53.7412 33.3809C53.9713 37.0718 52.4837 39.8817 49.937 40.4538Z" fill="#D86B79"/>
<path d="M45.8111 33.9755C45.3635 34.3471 44.5705 34.8516 43.2292 35.1071C42.2539 34.1521 41.8725 33.2929 41.7057 32.7356C40.9555 30.2262 42.6761 27.5366 46.0074 25.9118C47.8814 29.1087 47.8251 32.3014 45.8111 33.9755Z" fill="#D86B79"/>
<path d="M38.0606 30.5865C37.6884 31.0094 37.0002 31.6125 35.7279 32.0713C34.5956 31.3317 34.0657 30.5858 33.8004 30.0889C32.6083 27.8512 33.8117 25.0406 36.7912 22.9696C39.2133 25.6718 39.7362 28.6836 38.0606 30.5865Z" fill="#D86B79"/>
<path d="M27.5269 29.7681C26.9879 29.9046 26.1026 30.0144 24.8697 29.6885C24.4813 28.4747 24.546 27.5845 24.6544 27.0391C25.1456 24.5853 27.7781 22.9808 31.2805 22.9421C31.4205 26.441 29.9519 29.1523 27.5269 29.7681Z" fill="#D86B79"/>
<path d="M25.116 20.2554C24.5749 19.9915 23.7684 19.4665 22.9937 18.3561C23.5559 17.1246 24.2547 16.4624 24.7395 16.1057C26.9224 14.4984 30.2474 15.0452 33.1481 17.4342C30.7245 20.3068 27.5529 21.4432 25.116 20.2554Z" fill="#D86B79"/>
<path d="M43.5494 54.2182C43.1715 53.758 42.6599 52.9438 42.4087 51.5765C43.3967 50.5984 44.2812 50.2226 44.8548 50.0615C47.4367 49.3345 50.1839 51.1234 51.825 54.5342C48.5288 56.3941 45.2517 56.2906 43.5494 54.2182Z" fill="#D86B79"/>
<path d="M35.9874 55.5476C36.0149 54.9459 36.1739 54.0015 36.872 52.8714C38.1978 52.9446 39.064 53.3541 39.5728 53.6757C41.8648 55.1239 42.6635 58.425 41.6403 62.0069C38.1168 60.7986 35.865 58.2561 35.9874 55.5476Z" fill="#D86B79"/>
<path d="M29.8026 52.9825C29.9976 52.4843 30.4071 51.7314 31.3459 50.9552C32.5006 51.3429 33.153 51.8995 33.5133 52.295C35.1353 54.0747 34.9066 57.0415 32.9834 59.7944C30.2016 57.9127 28.9258 55.2245 29.8026 52.9825Z" fill="#D86B79"/>
<path d="M21.52 43.5888C21.1921 44.1046 20.5594 44.8653 19.2871 45.562C17.9761 44.9406 17.3006 44.2186 16.9431 43.7225C15.3359 41.4911 16.1704 38.2625 18.9958 35.5539C21.9732 38.0929 22.9943 41.2673 21.52 43.5888Z" fill="#D86B79"/>
<path d="M15.0348 46.1545C14.9919 46.6957 14.8145 47.5521 14.1193 48.6027C12.8597 48.6062 12.0469 48.2846 11.5712 48.0228C9.4298 46.8434 8.76058 43.9224 9.83302 40.6544C13.1531 41.5537 15.2262 43.7176 15.0348 46.1545Z" fill="#2F050F"/>
<path d="M14.5723 53.0086C14.8524 52.7799 15.352 52.4703 16.212 52.3105C16.8643 52.8925 17.131 53.4167 17.252 53.7573C17.796 55.2907 16.7496 56.9402 14.6378 57.9416C13.3521 55.9909 13.312 54.0374 14.5723 53.0086Z" fill="#2F050F"/>
<path d="M18.0762 56.4589C18.3908 56.202 18.9516 55.8544 19.9171 55.6749C20.6497 56.3287 20.9488 56.917 21.0853 57.2998C21.6961 59.021 20.5209 60.8732 18.1501 61.997C16.7054 59.8064 16.6611 57.6136 18.0762 56.4589Z" fill="#2F050F"/>
<path d="M21.4321 61.4277C21.6636 61.2391 22.0767 60.9822 22.7874 60.8506C23.3265 61.332 23.5467 61.7648 23.6474 62.0462C24.097 63.3136 23.2322 64.676 21.487 65.5042C20.4237 63.8921 20.3906 62.2778 21.4321 61.4277Z" fill="#2F050F"/>
<path d="M25.1062 60.7817C24.8388 60.61 24.444 60.2764 24.0767 59.6009C24.3856 58.8972 24.7515 58.5312 25.0034 58.3377C26.1371 57.4658 27.8007 57.8923 29.2123 59.3855C27.9308 60.9914 26.3088 61.5558 25.1062 60.7817Z" fill="#F7DAAB"/>
<path d="M22.9437 56.1337C22.6397 55.9381 22.19 55.5588 21.7727 54.7904C22.1246 53.9895 22.5404 53.5744 22.8269 53.3534C24.1167 52.3619 26.009 52.8467 27.6142 54.5448C26.1568 56.3716 24.3124 57.0134 22.9437 56.1337Z" fill="#F7DAAB"/>
<path d="M26.7957 11.407C26.7161 11.7279 26.5156 12.2374 25.9484 12.8693C25.099 12.8904 24.5818 12.7124 24.2863 12.5646C22.9541 11.8989 22.7782 10.1805 23.8084 8.2298C25.9604 8.71254 27.1539 9.96232 26.7957 11.407Z" fill="#2F050F"/>
<path d="M31.9343 10.0707C31.664 10.3114 31.1644 10.6512 30.2355 10.8877C29.4023 10.4148 29.009 9.95599 28.8119 9.65199C27.9253 8.2854 28.7894 6.64717 30.9582 5.50014C32.7484 7.17777 33.1496 8.98629 31.9343 10.0707Z" fill="#D86B79"/>
<path d="M37.9086 9.98273C37.5779 10.1741 36.9959 10.4148 36.0283 10.4458C35.357 9.7484 35.1079 9.16995 35.0037 8.80192C34.5372 7.1461 35.8446 5.61695 38.2752 4.91536C39.5285 7.11373 39.3983 9.1221 37.9086 9.98273Z" fill="#F7DAAB"/>
<path d="M43.1286 12.8813C42.7028 12.9158 42.0153 12.8855 41.1146 12.4774C40.9584 11.5006 41.1097 10.83 41.256 10.4282C41.9126 8.61966 44.1018 7.7351 46.7731 8.15803C46.4768 10.8455 45.0462 12.7244 43.1286 12.8813Z" fill="#F7DAAB"/>
<path d="M47.139 16.9431C46.7287 16.903 46.0736 16.751 45.2432 16.1859C45.17 15.1838 45.3678 14.5413 45.5388 14.1655C46.3086 12.4767 48.4732 11.9784 50.9967 12.87C50.502 15.5012 48.9862 17.1239 47.139 16.9431Z" fill="#F7DAAB"/>
<path d="M47.7112 21.7853C47.4389 21.539 47.0497 21.0823 46.7493 20.2273C47.2144 19.4497 47.6873 19.0795 48.0033 18.893C49.4247 18.0528 51.2262 18.8269 52.5668 20.8148C50.8561 22.4939 48.9364 22.8922 47.7112 21.7853Z" fill="#F7DAAB"/>
<path d="M59.8782 34.2204C59.7156 34.6546 59.3483 35.3414 58.425 36.1851C57.1745 36.1901 56.4392 35.9332 56.0254 35.7242C54.1627 34.7819 54.1493 32.44 55.9409 29.818C59.0351 30.5337 60.6107 32.2655 59.8782 34.2204Z" fill="#D86B79"/>
<path d="M19.2197 52.0368C18.8798 51.8179 18.3767 51.3936 17.9094 50.5336C18.3028 49.6378 18.7686 49.1727 19.0895 48.9257C20.5328 47.8159 22.6503 48.3585 24.4468 50.2592C22.8156 52.3035 20.751 53.0219 19.2197 52.0368Z" fill="#F7DAAB"/>
<path d="M26.8993 33.0952C27.4221 32.9791 28.2799 32.8995 29.4664 33.2507C29.8239 34.435 29.7479 35.2935 29.6346 35.8171C29.123 38.1731 26.5538 39.6459 23.1689 39.5791C23.0852 36.1943 24.5454 33.618 26.8993 33.0952Z" fill="#2F050F"/>
<path d="M21.6665 29.6625C22.2112 29.8539 23.0388 30.267 23.9078 31.248C23.5264 32.502 22.9466 33.2225 22.5314 33.6237C20.6623 35.4294 17.4492 35.29 14.4106 33.3225C16.3522 30.267 19.2148 28.8012 21.6665 29.6625Z" fill="#2F050F"/>
<path d="M19.4863 24.2982C19.9718 24.7169 20.6565 25.4656 21.1329 26.7626C20.1787 27.7611 19.2526 28.1749 18.6397 28.3649C15.8826 29.2192 12.578 27.671 10.2656 24.5001C13.6511 22.5143 17.2991 22.4144 19.4863 24.2982Z" fill="#2F050F"/>
<path d="M21.131 17.2647C21.0986 18.0247 20.8875 19.2435 19.9375 20.8141C18.1128 21.0196 16.9179 20.7015 16.2142 20.413C13.0483 19.1133 11.9202 15.1578 13.2967 10.4422C18.155 11.1657 21.276 13.8447 21.131 17.2647Z" fill="#F7DAAB"/>
<path d="M48.0328 44.1841C47.6711 48.2121 43.888 52.0009 39.7734 52.9938C32.3824 54.7777 28.0694 46.5662 20.7776 47.671C17.7968 48.1228 13.5555 50.2479 9.21509 58.6832C9.21509 57.7044 9.21509 56.7255 9.21509 55.7467C13.3437 48.5999 17.3239 46.519 20.411 46.1109C28.2285 45.0778 33.1248 54.4005 39.9578 52.2591C43.4517 51.1642 46.1025 47.488 46.3812 43.9998C46.726 39.6861 43.4207 35.9255 40.5081 34.0888C34.1522 30.0819 28.4902 34.4969 24.0815 30.4183C20.4786 27.0841 21.354 21.4461 21.4201 21.0583C22.0971 17.081 25.0773 13.5195 28.9934 11.8102C30.8624 10.9925 32.9461 10.5978 35.0931 10.7807C40.9507 11.2789 45.8907 15.9544 46.8309 22.1097L46.3713 21.8437C45.1828 16.1113 40.4701 11.9327 35.0931 11.6069C33.3437 11.5013 31.6323 11.8095 30.0616 12.4274C26.0385 14.0107 22.9408 17.6278 22.5214 21.5178C22.4679 22.0076 22.1112 25.8963 24.8155 28.7674C28.6662 32.8566 33.6737 29.5225 40.2322 33.0804C43.7233 34.9741 48.4747 39.2652 48.0328 44.1841Z" fill="#D86B79"/>
<path d="M28.4065 64.7844L28.1883 64.9103C26.0822 63.6437 24.7859 62.2721 23.9901 61.2532C21.969 58.6664 22.1661 57.0204 19.8607 54.5539C18.6947 53.3062 17.3309 51.8475 15.6392 51.9847C14.2114 52.1001 13.1995 53.2999 11.6013 55.1964C10.4684 56.5405 9.70275 57.791 9.21509 58.6832C9.21509 57.6741 9.21509 56.6643 9.21509 55.6552C9.37553 55.3456 9.61409 54.9262 9.94905 54.4624C10.3312 53.934 12.5675 50.8384 15.4548 50.7919C17.9734 50.7511 19.8002 53.0494 20.7776 54.2788C22.7431 56.7516 22.3406 58.2737 24.173 60.8858C25.5635 62.8682 27.2475 64.0842 28.4065 64.7844Z" fill="#F7DAAB"/>
<g style="mix-blend-mode:multiply">
<path d="M22.4447 68.2255L20.7495 69.2043C15.6237 72.1641 9.21509 68.4647 9.21509 62.5445V13.7103C9.21509 7.79 15.623 4.09133 20.7495 7.05041L22.4447 8.02926C18.7348 8.09963 15.3641 11.0876 15.3641 15.245V61.0097C15.3641 65.1665 18.7348 68.1544 22.4447 68.2255Z" fill="#B8747F" fill-opacity="0.6"/>
</g>
</svg>
