<svg width="14" height="10" viewBox="0 0 14 10" fill="none" xmlns="http://www.w3.org/2000/svg">
<path d="M13.11 9.65005C13.2176 9.65005 13.3193 9.61147 13.387 9.54489C13.4548 9.47835 13.4812 9.39106 13.459 9.30729L13.2344 8.46083C13.3623 8.36229 13.4427 8.2247 13.4427 8.07172C13.4427 7.91068 13.3526 7.76785 13.2128 7.66861V4.72916L12.3125 5.17287V7.66861C12.1727 7.76785 12.0826 7.91068 12.0826 8.07172C12.0826 8.22472 12.163 8.36231 12.2909 8.46083L12.0663 9.30729C12.0441 9.39108 12.0705 9.47837 12.1382 9.54489C12.2059 9.61143 12.3077 9.65005 12.4153 9.65005H13.11ZM13.4152 3.01388L7.55781 0.12639C7.38627 0.0422422 7.19289 0 6.99951 0C6.80613 0 6.61261 0.0422068 6.44211 0.12639L0.584652 3.01388C0.428245 3.09095 0.333252 3.22708 0.333252 3.37358C0.333252 3.52011 0.428245 3.65628 0.584652 3.73347L6.44208 6.62099C6.61258 6.70522 6.8061 6.74738 6.99948 6.74738C7.19286 6.74738 7.38627 6.70517 7.55778 6.62099L13.4152 3.73347C13.5716 3.65631 13.6666 3.52011 13.6666 3.37358C13.6666 3.22708 13.5716 3.09091 13.4152 3.01388ZM6.99948 7.46435C6.63462 7.46435 6.27851 7.38365 5.9681 7.23065L2.55143 5.5462V8.44667C2.55143 9.3051 4.54383 10 6.99948 10C9.45601 10 11.4482 9.30508 11.4482 8.44667V5.5462L8.03171 7.23065C7.7213 7.38365 7.36435 7.46435 6.99948 7.46435Z" fill="#70232F"/>
</svg>
